<svg preserveAspectRatio="xMidYMid meet" data-bbox="0.5 0.13 149.1 39.74" viewBox="0.5 0.12999999523162842 149.09999084472656 39.7400016784668" xmlns="http://www.w3.org/2000/svg" data-type="color" role="img">
    <g>
        <path fill="#0479dc" d="M40.24 20c0 10.974-8.896 19.87-19.87 19.87S.5 30.974.5 20 9.396.13 20.37.13 40.24 9.026 40.24 20z" data-color="1"></path>
        <path d="M30.07 25.08a6.08 6.08 0 0 0-.76-2.1l-.12-.19-.1-.14v.06-.12l-.11-.15a6.16 6.16 0 0 0-.89-.93l-8.77 8.77h-2.96l9.82-9.84 2-2 .37-.37a6.1 6.1 0 0 0 1.6-4.12v-.29a6.09 6.09 0 0 0-.56-2.3 6.13 6.13 0 0 0-1.17-1.69L18 20l-.11.11-4.11 4.1v-2.9l4.11-4.11 8.85-8.85a6.08 6.08 0 0 0-2.24-.62h-5.69l-.92.92-4.11 4.11V9.88L16 7.7h-4.2v9.91l6.13-6.13 1.75-1.75h2.86l-4.61 4.61-6.13 6.13V29l6.13-6.13 3-3L28 12.83a4.09 4.09 0 0 1 .12 1A4 4 0 0 1 27 16.65l-1.08 1.13-1.5 1.5-.67.67-5.82 5.82-6.14 6.13v.3h8.31l7.71-7.71a4.08 4.08 0 0 1 .32 1.59 4.09 4.09 0 0 1-.13 1.09l-5 5h1a6.12 6.12 0 0 0 6.11-7.11z" fill="#ffffff" data-color="2"></path>
        <path d="M56.11 22.63c0 1.78-.47 3.2-2.7 3.2h-4c-1 0-1.7-.42-1.7-1.75v-8.16c0-1.33.7-1.75 1.7-1.75h4c1.68 0 2.52 1.1 2.52 3.2 0 1.25-.38 2.32-1.65 2.5v.07c1.36.11 1.83 1.18 1.83 2.69zm-6.16-3.57h2.43c1 0 1.28-.43 1.28-1.6 0-1-.3-1.55-1.3-1.55h-1.58c-.67 0-.83.17-.83.83zm0 4.18c0 .67.17.83.83.83h1.48c1.15 0 1.58-.43 1.58-1.6s-.43-1.67-1.43-1.67h-2.47z" fill="#3f3b52" data-color="3"></path>
        <path d="M64.2 21.6v-7.43h2.2v7.43c0 3.33-1.23 4.36-4.23 4.36s-4.23-1-4.23-4.36v-7.43h2.2v7.43c0 1.83.37 2.62 2 2.62s2.06-.79 2.06-2.62z" fill="#3f3b52" data-color="3"></path>
        <path d="M68.4 25.83V14.17h2.2v11.66z" fill="#3f3b52" data-color="3"></path>
        <path d="M74.3 25.83c-1 0-1.7-.42-1.7-1.75v-9.91h2.2v9.08c0 .67.17.83.83.83h4.27v1.75z" fill="#3f3b52" data-color="3"></path>
        <path d="M82.6 25.83c-1 0-1.7-.42-1.7-1.75v-8.16c0-1.33.7-1.75 1.7-1.75h3.18c4 0 4.26 3 4.26 5.83s-.3 5.83-4 5.83zm1.33-9.91c-.67 0-.83.17-.83.83v6.5c0 .67.17.83.83.83H85c2.67 0 2.77-1.75 2.77-4.08s-.1-4.08-2.77-4.08z" fill="#3f3b52" data-color="3"></path>
        <path d="M91.46 24.56H96c.87 0 1.23-.53 1.23-1.55 0-.62-.27-1.07-1.32-1.68l-2.64-1.53c-1.25-.73-2-1.45-2-3a2.35 2.35 0 0 1 2.65-2.65h4.21v1.27h-3.91c-.88 0-1.32.33-1.32 1.42 0 .63.18 1.08 1.12 1.67L96.41 20c1.4.87 2.42 1.45 2.42 3s-.62 2.82-2.42 2.82h-4.95z" fill="#3f3b52" data-color="3"></path>
        <path d="M103 25.83V15.44h-3.76v-1.27h9v1.27h-3.74v10.4z" fill="#3f3b52" data-color="3"></path>
        <path d="M109.3 25.83v-10c0-1.2.6-1.62 1.63-1.62h3.65c2.15 0 2.83 1.38 2.83 3.55s-.63 3.7-2.57 3.7h-.45v.08l3.17 4.33h-1.88l-2.88-4.06a1.39 1.39 0 0 1-.35-.8v-.23c0-.35.25-.58.7-.58h1.1c1.42 0 1.55-1 1.55-2.43s-.27-2.28-1.8-2.28h-2.4c-.58 0-.75.17-.75.75v9.65z" fill="#3f3b52" data-color="3"></path>
        <path d="M126.14 25.83h-5.28c-1 0-1.63-.4-1.63-1.6v-8.44c0-1.2.6-1.62 1.63-1.62h5.21v1.27h-4.55c-.58 0-.75.17-.75.75v3h5.13v1.31h-5.13v3.32c0 .58.17.75.75.75h4.61z" fill="#3f3b52" data-color="3"></path>
        <path d="M145.17 24.63c-.25.92-.7 1.33-1.5 1.33s-1.27-.42-1.52-1.33L139.77 16c-.07-.25-.18-.37-.3-.37s-.22.17-.22.33v9.88h-1.55V15.35c0-.85.57-1.32 1.48-1.32a1.61 1.61 0 0 1 1.82 1.34l2.4 8.63c.07.22.15.4.3.4s.23-.18.3-.4l2.4-8.63a1.59 1.59 0 0 1 1.7-1.37c.92 0 1.5.47 1.5 1.32v10.51H148v-9.88c0-.3-.15-.33-.22-.33s-.23.12-.3.37z" fill="#3f3b52" data-color="3"></path>
        <path d="M134.1 22.65l1 3.18h1.63l-3.36-10.43a1.72 1.72 0 0 0-3.37 0l-3.35 10.43h1.63l1-3.18.35-1.27 1.67-5.33c.1-.33.2-.57.4-.57s.3.23.4.57l1.67 5.33z" fill="#3f3b52" data-color="3"></path>
    </g>
</svg>
